# xmcd CD database file
#
# Track frame offsets:
#	150
#	16650
#	29892
#	43352
#	57180
#	70987
#	90302
#	103067
#	120385
#	134737
#	156522
#	173285
#	184640
#	201795
#
# Disc length: 2978 seconds
#
# Revision: 0
# Processed by: cddbd v1.5.1PL0 Copyright (c) Steve Scherf et al.
# Submitted via: CDex 1.40Beta8
#
DISCID=bf0ba00e
DTITLE=Sertanejo - Bailão 2000
DYEAR=2000
DGENRE=Country
TTITLE0=Bailão de Peão
TTITLE1=De São Paulo a Belém
TTITLE2=Saco de Ouro
TTITLE3=Nóis Nãi Vive se Muié
TTITLE4=Fui Dando Porrada
TTITLE5=Serafim e Seus Filhos
TTITLE6=Água de Coco
TTITLE7=A Mulher em Mim
TTITLE8=Moreninha Linda
TTITLE9=Etc... e Tal - Jambalaya
TTITLE10=AGente se Entrega
TTITLE11=Conta pra Ela
TTITLE12=Peão de Rodeio
TTITLE13=Oração de Peão de Boiadeiro
EXTD=YEAR: 2000 ID3G: 2
EXTT0=
EXTT1=
EXTT2=
EXTT3=
EXTT4=
EXTT5=
EXTT6=
EXTT7=
EXTT8=
EXTT9=
EXTT10=
EXTT11=
EXTT12=
EXTT13=
PLAYORDER=
